<svg version="1.0" xmlns="http://www.w3.org/2000/svg" preserveAspectRatio="xMidYMid meet" viewBox="90.5 74.05 109 140.04"> <metadata> Created by potrace 1.10, written by Peter Selinger 2001-2011 </metadata> <g transform="translate(0.000000,300.000000) scale(0.100000,-0.100000)" fill="#000000" stroke="none"> <path d="M1616 2241 c-12 -34 -71 -96 -119 -125 -24 -13 -83 -41 -132 -61 -130 -54 -162 -71 -212 -118 -66 -61 -86 -106 -91 -209 -2 -49 -7 -88 -11 -89 -3 0 -37 -9 -76 -20 l-70 -20 70 6 c177 13 372 118 491 265 60 75 124 203 149 299 16 64 17 121 1 72z m-71 -168 c-22 -89 -142 -242 -243 -310 -56 -38 -169 -93 -191 -93 -13 0 -14 8 -11 74 2 64 32 126 80 170 36 33 183 109 260 135 19 6 46 20 60 31 37 29 54 26 45 -7z"/> <path d="M1717 1969 c-8 -60 -61 -162 -106 -202 l-39 -35 151 5 c84 3 153 7 155 8 1 1 -7 31 -18 66 -18 59 -109 199 -129 199 -5 0 -11 -19 -14 -41z m99 -126 c28 -57 18 -68 -64 -71 -66 -3 -72 -1 -72 17 0 11 5 23 11 26 5 4 21 32 35 63 l25 57 25 -30 c14 -16 32 -44 40 -62z"/> <path d="M1713 1617 l-23 -38 -385 3 c-367 3 -384 2 -362 -14 18 -15 121 -61 178 -81 9 -3 30 -37 45 -75 l29 -70 55 -12 c112 -25 200 -80 200 -127 0 -11 14 -7 58 17 103 58 195 128 306 230 60 55 125 109 145 120 l36 19 -127 -6 -127 -6 -3 39 -3 39 -22 -38z m122 -78 c22 -21 -247 -247 -333 -280 -20 -8 -31 -3 -65 26 -22 19 -45 35 -50 35 -5 0 -23 6 -40 14 -18 7 -51 19 -74 25 -44 12 -76 46 -88 94 -5 17 -25 40 -54 60 l-46 32 310 5 c326 6 424 3 440 -11z"/> <path d="M990 995 l0 -135 31 0 32 0 -5 90 c-3 49 -3 88 1 86 3 -3 33 -43 66 -90 50 -71 64 -85 88 -86 l27 0 0 135 0 135 -28 0 -28 0 4 -90 c3 -49 2 -90 -1 -90 -4 0 -34 41 -69 90 -53 77 -66 90 -90 90 l-28 0 0 -135z"/> <path d="M1284 1026 c-22 -22 -34 -44 -34 -60 0 -77 78 -129 142 -95 15 8 22 8 28 -1 4 -7 15 -10 24 -8 15 2 17 18 19 101 2 93 1 97 -20 97 -12 0 -23 -6 -26 -12 -4 -10 -7 -10 -18 0 -26 24 -79 14 -115 -22z m116 -31 c20 -21 22 -28 12 -50 -18 -38 -55 -52 -87 -31 -31 20 -33 58 -5 86 27 27 52 25 80 -5z"/> <path d="M1541 1046 c-13 -7 -30 -24 -37 -37 -47 -85 43 -183 127 -139 13 7 19 7 19 0 0 -5 11 -10 25 -10 25 0 25 0 25 100 0 100 0 100 -25 100 -14 0 -25 -5 -25 -10 0 -7 -6 -7 -19 0 -26 14 -61 12 -90 -4z m87 -42 c32 -22 27 -73 -9 -93 -24 -13 -29 -13 -53 2 -34 22 -36 69 -4 91 28 20 38 20 66 0z"/> <path d="M1758 961 c64 -135 75 -135 136 -5 25 53 46 98 46 100 0 2 -13 4 -28 4 -25 0 -31 -7 -52 -57 -12 -32 -26 -62 -30 -66 -4 -5 -19 20 -33 55 -22 57 -28 63 -56 66 l-31 3 48 -100z"/> </g> </svg>